<svg id="Capa_1" enable-background="new 0 0 511.985 511.985" height="512" viewBox="0 0 511.985 511.985" width="512" xmlns="http://www.w3.org/2000/svg"><g><path d="m486.376 131.675-21.211-21.211c-5.859-5.859-5.859-15.352 0-21.211s15.352-5.859 21.211 0l21.211 21.211c5.859 5.859 5.859 15.352 0 21.211s-15.352 5.859-21.211 0z" fill="#58072a"/><path d="m443.939 174.097-21.211-21.211c-5.859-5.859-5.859-15.352 0-21.211s15.352-5.859 21.211 0l21.211 21.211c5.859 5.859 5.859 15.352 0 21.211s-15.351 5.859-21.211 0z" fill="#58072a"/><path d="m359.095 89.253-21.211-21.211c-5.859-5.859-5.859-15.352 0-21.211s15.352-5.859 21.211 0l21.211 21.211c5.859 5.859 5.859 15.352 0 21.211s-15.351 5.859-21.211 0z" fill="#6d1d40"/><path d="m401.517 46.816-21.211-21.211c-5.859-5.859-5.859-15.352 0-21.211s15.352-5.859 21.211 0l21.211 21.211c5.859 5.859 5.859 15.352 0 21.211-5.859 5.86-15.351 5.86-21.211 0z" fill="#6d1d40"/><path d="m507.587 68.042-31.824-31.824-31.824-31.823c-5.625-5.625-15.586-5.625-21.211 0l-39.917 39.932c-16.304 16.274-28.96 36.255-36.753 57.964l13.037 43.035 3.779 3.781 6.094 6.094 40.723 10.723c21.709-7.793 41.689-20.449 57.964-36.753l39.932-39.917c5.859-5.86 5.855-15.356 0-21.212z" fill="#fabe2c"/><path d="m409.691 165.923c21.709-7.793 41.689-20.449 57.964-36.753l39.932-39.917c5.859-5.859 5.856-15.355 0-21.211l-31.824-31.824-112.888 112.888 6.094 6.094z" fill="#ff9100"/><path d="m351.207 203.196-21.211-21.211-21.211-21.211c-21.753-21.753-51.46-31.86-83.862-28.169-24.917 2.769-50.288 13.828-64.629 28.169-13.242 13.242-17.124 22.866-20.552 31.362-2.681 6.65-4.805 11.909-12.275 20.259-3.999 4.468-8.467 4.878-21.255 4.629-18.589-.103-44.048-.542-72.202 27.598-52.632 52.646-43.11 147.803 21.226 212.124 59.279 59.302 155.709 77.604 212.124 21.226 28.169-28.169 27.847-53.613 27.598-72.202-.176-12.788.146-17.256 4.629-21.255 8.35-7.471 13.608-9.595 20.259-12.275 8.496-3.428 18.12-7.31 31.362-20.552 14.341-14.341 25.4-39.712 28.169-64.629 3.588-32.33-6.417-62.11-28.17-83.863z" fill="#fabe2c"/><path d="m267.359 477.972c28.169-28.169 27.847-53.613 27.598-72.202-.176-12.788.146-17.256 4.629-21.255 8.35-7.471 13.608-9.595 20.259-12.275 8.496-3.428 18.12-7.31 31.362-20.552 14.341-14.341 25.4-39.712 28.169-64.629 3.589-32.329-6.416-62.109-28.169-83.862l-21.211-21.211-274.761 274.76c59.279 59.302 155.709 77.604 212.124 21.226z" fill="#ff9100"/><path d="m246.148 265.833c-23.408-23.408-61.479-23.408-84.858 0-23.379 23.394-23.379 61.465 0 84.858 23.41 23.381 61.452 23.375 84.858 0 23.394-23.393 23.394-61.464 0-84.858z" fill="#873a62"/><path d="m246.148 350.691c23.394-23.394 23.394-61.465 0-84.858l-84.858 84.858c23.41 23.381 61.452 23.376 84.858 0z" fill="#6d1d40"/><path d="m161.29 393.113-21.211-21.211-21.211-21.211c-5.859-5.859-15.352-5.859-21.211 0s-5.859 15.352 0 21.211l21.211 21.211 21.211 21.211c5.859 5.859 15.352 5.859 21.211 0s5.859-15.351 0-21.211z" fill="#873a62"/><path d="m161.29 414.324c5.859-5.859 5.859-15.352 0-21.211l-21.211-21.211-21.211 21.211 21.211 21.211c5.859 5.86 15.351 5.86 21.211 0z" fill="#6d1d40"/><path d="m377.875 134.106-31.816-31.816-100.907 100.906c-5.859 5.859-5.859 15.352 0 21.211l21.211 21.211 21.211 21.211c5.859 5.859 15.352 5.859 21.211 0l100.906-100.906z" fill="#873a62"/><path d="m308.785 266.829 100.906-100.906-31.816-31.816-111.512 111.511 21.211 21.211c5.859 5.859 15.351 5.86 21.211 0z" fill="#6d1d40"/></g></svg>